<?xml version="1.0" encoding="UTF-8"?><!DOCTYPE svg PUBLIC "-//W3C//DTD SVG 1.1//EN" "http://www.w3.org/Graphics/SVG/1.1/DTD/svg11.dtd"><svg xmlns="http://www.w3.org/2000/svg" xmlns:xlink="http://www.w3.org/1999/xlink"><defs/><symbol id="icon-ui-x" viewBox="0 0 24 24"><path d="M18 6L6 18M6 6l12 12"/></symbol><symbol id="icon-ui-x-circle" viewBox="0 0 24 24"><circle cx="12" cy="12" r="10"/><path d="M15 9l-6 6M9 9l6 6"/></symbol><symbol id="icon-ui-user-check" viewBox="0 0 24 24"><path d="M16 21v-2a4 4 0 00-4-4H5a4 4 0 00-4 4v2"/><circle cx="8.5" cy="7" r="4"/><path d="M17 11l2 2 4-4"/></symbol><symbol id="icon-ui-settings" viewBox="0 0 24 24"><circle cx="12" cy="12" r="3"/><path d="M19.4 15a1.65 1.65 0 00.33 1.82l.06.06a2 2 0 010 2.83 2 2 0 01-2.83 0l-.06-.06a1.65 1.65 0 00-1.82-.33 1.65 1.65 0 00-1 1.51V21a2 2 0 01-2 2 2 2 0 01-2-2v-.09A1.65 1.65 0 009 19.4a1.65 1.65 0 00-1.82.33l-.06.06a2 2 0 01-2.83 0 2 2 0 010-2.83l.06-.06a1.65 1.65 0 00.33-1.82 1.65 1.65 0 00-1.51-1H3a2 2 0 01-2-2 2 2 0 012-2h.09A1.65 1.65 0 004.6 9a1.65 1.65 0 00-.33-1.82l-.06-.06a2 2 0 010-2.83 2 2 0 012.83 0l.06.06a1.65 1.65 0 001.82.33H9a1.65 1.65 0 001-1.51V3a2 2 0 012-2 2 2 0 012 2v.09a1.65 1.65 0 001 1.51 1.65 1.65 0 001.82-.33l.06-.06a2 2 0 012.83 0 2 2 0 010 2.83l-.06.06a1.65 1.65 0 00-.33 1.82V9a1.65 1.65 0 001.51 1H21a2 2 0 012 2 2 2 0 01-2 2h-.09a1.65 1.65 0 00-1.51 1z"/></symbol><symbol id="icon-ui-search" viewBox="0 0 24 24"><circle cx="11" cy="11" r="8"/><path d="M21 21l-4.35-4.35"/></symbol><symbol id="icon-ui-printer" viewBox="0 0 24 24"><path d="M6 9V2h12v7M6 18H4a2 2 0 01-2-2v-5a2 2 0 012-2h16a2 2 0 012 2v5a2 2 0 01-2 2h-2"/><path d="M6 14h12v8H6z"/></symbol><symbol id="icon-ui-plus-circle" viewBox="0 0 24 24"><circle cx="12" cy="12" r="10"/><path d="M12 8v8M8 12h8"/></symbol><symbol id="icon-ui-minus-circle" viewBox="0 0 24 24"><circle cx="12" cy="12" r="10"/><path d="M8 12h8"/></symbol><symbol id="icon-ui-message-circle" viewBox="0 0 24 24"><path d="M21 11.5a8.38 8.38 0 01-.9 3.8 8.5 8.5 0 01-7.6 4.7 8.38 8.38 0 01-3.8-.9L3 21l1.9-5.7a8.38 8.38 0 01-.9-3.8 8.5 8.5 0 014.7-7.6 8.38 8.38 0 013.8-.9h.5a8.48 8.48 0 018 8v.5z"/></symbol><symbol id="icon-ui-mail" viewBox="0 0 24 24"><path d="M4 4h16c1.1 0 2 .9 2 2v12c0 1.1-.9 2-2 2H4c-1.1 0-2-.9-2-2V6c0-1.1.9-2 2-2z"/><path d="M22 6l-10 7L2 6"/></symbol><symbol id="icon-ui-info" viewBox="0 0 24 24"><circle cx="12" cy="12" r="10"/><path d="M12 16v-4M12 8h0"/></symbol><symbol id="icon-ui-chevron-up" viewBox="0 0 24 24"><path d="M18 15l-6-6-6 6"/></symbol><symbol id="icon-ui-chevron-right" viewBox="0 0 24 24"><path d="M9 18l6-6-6-6"/></symbol><symbol id="icon-ui-chevron-left" viewBox="0 0 24 24"><path d="M15 18l-6-6 6-6"/></symbol><symbol id="icon-ui-chevron-down" viewBox="0 0 24 24"><path d="M6 9l6 6 6-6"/></symbol><symbol id="icon-ui-check" viewBox="0 0 24 24"><path d="M20 6L9 17l-5-5"/></symbol><symbol id="icon-ui-check-circle" viewBox="0 0 24 24"><path d="M22 11.08V12a10 10 0 11-5.93-9.14"/><path d="M22 4L12 14.01l-3-3"/></symbol><symbol id="icon-ui-calendar" viewBox="0 0 24 24"><rect x="3" y="4" width="18" height="18" rx="2" ry="2"/><path d="M16 2v4M8 2v4M3 10h18"/></symbol><symbol id="icon-ui-alert-triangle" viewBox="0 0 24 24"><path d="M10.29 3.86L1.82 18a2 2 0 001.71 3h16.94a2 2 0 001.71-3L13.71 3.86a2 2 0 00-3.42 0zM12 9v4M12 17h0"/></symbol><symbol id="icon-ui-alert-octagon" viewBox="0 0 24 24"><path d="M7.86 2h8.28L22 7.86v8.28L16.14 22H7.86L2 16.14V7.86L7.86 2zM12 8v4M12 16h0"/></symbol></svg>