<svg><defs/><symbol id="icon-ui-alert-octagon" viewBox="0 0 24 24"><path d="M7.86 2L16.14 2 22 7.86 22 16.14 16.14 22 7.86 22 2 16.14 2 7.86 7.86 2zM12 8L12 12M12 16L12 16"/></symbol><symbol id="icon-ui-alert-triangle" viewBox="0 0 24 24"><path d="M10.29 3.86L1.82 18a2 2 0 0 0 1.71 3h16.94a2 2 0 0 0 1.71-3L13.71 3.86a2 2 0 0 0-3.42 0zM12 9L12 13M12 17L12 17"/></symbol><symbol id="icon-ui-calendar" viewBox="0 0 24 24"><rect x="3" y="4" width="18" height="18" rx="2" ry="2"/><path d="M16 2L16 6M8 2L8 6M3 10L21 10"/></symbol><symbol id="icon-ui-check-circle" viewBox="0 0 24 24"><path d="M22 11.08V12a10 10 0 1 1-5.93-9.14"/><path d="M22 4L12 14.01 9 11.01"/></symbol><symbol id="icon-ui-check" viewBox="0 0 24 24"><path d="M20 6L9 17 4 12"/></symbol><symbol id="icon-ui-chevron-down" viewBox="0 0 24 24"><path d="M6 9L12 15 18 9"/></symbol><symbol id="icon-ui-chevron-left" viewBox="0 0 24 24"><path d="M15 18L9 12 15 6"/></symbol><symbol id="icon-ui-chevron-right" viewBox="0 0 24 24"><path d="M9 18L15 12 9 6"/></symbol><symbol id="icon-ui-chevron-up" viewBox="0 0 24 24"><path d="M18 15L12 9 6 15"/></symbol><symbol id="icon-ui-info" viewBox="0 0 24 24"><circle cx="12" cy="12" r="10"/><path d="M12 16L12 12M12 8L12 8"/></symbol><symbol id="icon-ui-mail" viewBox="0 0 24 24"><path d="M4 4h16c1.1 0 2 .9 2 2v12c0 1.1-.9 2-2 2H4c-1.1 0-2-.9-2-2V6c0-1.1.9-2 2-2z"/><path d="M22 6L12 13 2 6"/></symbol><symbol id="icon-ui-message-circle" viewBox="0 0 24 24"><path d="M21 11.5a8.38 8.38 0 0 1-.9 3.8 8.5 8.5 0 0 1-7.6 4.7 8.38 8.38 0 0 1-3.8-.9L3 21l1.9-5.7a8.38 8.38 0 0 1-.9-3.8 8.5 8.5 0 0 1 4.7-7.6 8.38 8.38 0 0 1 3.8-.9h.5a8.48 8.48 0 0 1 8 8v.5z"/></symbol><symbol id="icon-ui-minus-circle" viewBox="0 0 24 24"><circle cx="12" cy="12" r="10"/><path d="M8 12L16 12"/></symbol><symbol id="icon-ui-plus-circle" viewBox="0 0 24 24"><circle cx="12" cy="12" r="10"/><path d="M12 8L12 16M8 12L16 12"/></symbol><symbol id="icon-ui-printer" viewBox="0 0 24 24"><path d="M6 9L6 2 18 2 18 9M6 18H4a2 2 0 0 1-2-2v-5a2 2 0 0 1 2-2h16a2 2 0 0 1 2 2v5a2 2 0 0 1-2 2h-2"/><path d="M6 14H18V22H6z"/></symbol><symbol id="icon-ui-search" viewBox="0 0 24 24"><circle cx="11" cy="11" r="8"/><path d="M21 21L16.65 16.65"/></symbol><symbol id="icon-ui-settings" viewBox="0 0 24 24"><circle cx="12" cy="12" r="3"/><path d="M19.4 15a1.65 1.65 0 0 0 .33 1.82l.06.06a2 2 0 0 1 0 2.83 2 2 0 0 1-2.83 0l-.06-.06a1.65 1.65 0 0 0-1.82-.33 1.65 1.65 0 0 0-1 1.51V21a2 2 0 0 1-2 2 2 2 0 0 1-2-2v-.09A1.65 1.65 0 0 0 9 19.4a1.65 1.65 0 0 0-1.82.33l-.06.06a2 2 0 0 1-2.83 0 2 2 0 0 1 0-2.83l.06-.06a1.65 1.65 0 0 0 .33-1.82 1.65 1.65 0 0 0-1.51-1H3a2 2 0 0 1-2-2 2 2 0 0 1 2-2h.09A1.65 1.65 0 0 0 4.6 9a1.65 1.65 0 0 0-.33-1.82l-.06-.06a2 2 0 0 1 0-2.83 2 2 0 0 1 2.83 0l.06.06a1.65 1.65 0 0 0 1.82.33H9a1.65 1.65 0 0 0 1-1.51V3a2 2 0 0 1 2-2 2 2 0 0 1 2 2v.09a1.65 1.65 0 0 0 1 1.51 1.65 1.65 0 0 0 1.82-.33l.06-.06a2 2 0 0 1 2.83 0 2 2 0 0 1 0 2.83l-.06.06a1.65 1.65 0 0 0-.33 1.82V9a1.65 1.65 0 0 0 1.51 1H21a2 2 0 0 1 2 2 2 2 0 0 1-2 2h-.09a1.65 1.65 0 0 0-1.51 1z"/></symbol><symbol id="icon-ui-user-check" viewBox="0 0 24 24"><path d="M16 21v-2a4 4 0 0 0-4-4H5a4 4 0 0 0-4 4v2"/><circle cx="8.5" cy="7" r="4"/><path d="M17 11L19 13 23 9"/></symbol><symbol id="icon-ui-x-circle" viewBox="0 0 24 24"><circle cx="12" cy="12" r="10"/><path d="M15 9L9 15M9 9L15 15"/></symbol><symbol id="icon-ui-x" viewBox="0 0 24 24"><path d="M18 6L6 18M6 6L18 18"/></symbol></svg>